HIERARCHY
ROOT Hips
{
	OFFSET -3.958830 18.904000 13.208200
	CHANNELS 6 Xposition Yposition Zposition Zrotation Yrotation Xrotation 
	JOINT LHipJoint
	{
		OFFSET 0.000000 0.000000 0.000000
		CHANNELS 3 Zrotation Yrotation Xrotation
		JOINT LeftUpLeg
		{
			OFFSET 1.800000 -1.400000 0.085000
			CHANNELS 3 Zrotation Yrotation Xrotation
			JOINT LeftLeg
			{
				OFFSET 2.215000 -6.000000 0.000000
				CHANNELS 3 Zrotation Yrotation Xrotation
				JOINT LeftFoot
				{
					OFFSET 2.500000 -6.900000 0.000000
					CHANNELS 3 Zrotation Yrotation Xrotation
					JOINT LeftToeBase
					{
						OFFSET 0.200000 -0.500000 1.950000
						CHANNELS 3 Zrotation Yrotation Xrotation
						End Site
						{
							OFFSET 0.000000 0.000000 0.000000
						}
					}
				}
			}
		}
	}
	JOINT RHipJoint
	{
		OFFSET 0.000000 0.000000 0.000000
		CHANNELS 3 Zrotation Yrotation Xrotation
		JOINT RightUpLeg
		{
			OFFSET -1.800000 -1.400000 0.085000
			CHANNELS 3 Zrotation Yrotation Xrotation
			JOINT RightLeg
			{
				OFFSET -2.215000 -6.000000 0.000000
				CHANNELS 3 Zrotation Yrotation Xrotation
				JOINT RightFoot
				{
					OFFSET -2.500000 -6.900000 0.000000
					CHANNELS 3 Zrotation Yrotation Xrotation
					JOINT RightToeBase
					{
						OFFSET -0.200000 -0.500000 1.950000
						CHANNELS 3 Zrotation Yrotation Xrotation
						End Site
						{
							OFFSET 0.000000 0.000000 0.000000
						}
					}
				}
			}
		}
	}
	JOINT LowerBack
	{
		OFFSET 0.000000 0.000000 0.000000
		CHANNELS 3 Zrotation Yrotation Xrotation
		JOINT Spine
		{
			OFFSET -0.087000 1.940000 -0.288900
			CHANNELS 3 Zrotation Yrotation Xrotation
			JOINT Spine1
			{
				OFFSET 0.000000 1.950000 0.060000
				CHANNELS 3 Zrotation Yrotation Xrotation
				JOINT Neck
				{
					OFFSET 0.000000 0.000000 0.000000
					CHANNELS 3 Zrotation Yrotation Xrotation
					JOINT Neck1
					{
						OFFSET 0.000000 1.600000 0.340000
						CHANNELS 3 Zrotation Yrotation Xrotation
						JOINT Head
						{
							OFFSET 0.000000 1.667000 -0.240000
							CHANNELS 3 Zrotation Yrotation Xrotation
							End Site
							{
								OFFSET 0.000000 0.000000 0.000000
							}
						}
					}
				}
				JOINT LeftShoulder
				{
					OFFSET 0.000000 0.000000 0.000000
					CHANNELS 3 Zrotation Yrotation Xrotation
					JOINT LeftArm
					{
						OFFSET 2.700000 1.550000 -0.730000
						CHANNELS 3 Zrotation Yrotation Xrotation
						JOINT LeftForeArm
						{
							OFFSET 5.450000 0.000000 0.000000
							CHANNELS 3 Zrotation Yrotation Xrotation
							JOINT LeftHand
							{
								OFFSET 3.450000 0.000000 0.000000
								CHANNELS 3 Zrotation Yrotation Xrotation
								JOINT LeftHandIndex1
								{
									OFFSET 0.750000 0.000000 0.000000
									CHANNELS 3 Zrotation Yrotation Xrotation
									End Site
									{
										OFFSET 0.000000 0.000000 0.000000
									}
								}
							}
						}
					}
				}
				JOINT RightShoulder
				{
					OFFSET 0.000000 0.000000 0.000000
					CHANNELS 3 Zrotation Yrotation Xrotation
					JOINT RightArm
					{
						OFFSET -2.700000 1.550000 -0.730000
						CHANNELS 3 Zrotation Yrotation Xrotation
						JOINT RightForeArm
						{
							OFFSET -5.450000 0.000000 0.000000
							CHANNELS 3 Zrotation Yrotation Xrotation
							JOINT RightHand
							{
								OFFSET -3.450000 0.000000 0.000000
								CHANNELS 3 Zrotation Yrotation Xrotation
								JOINT RightHandIndex1
								{
									OFFSET -0.750000 0.000000 0.000000
									CHANNELS 3 Zrotation Yrotation Xrotation
									End Site
									{
										OFFSET 0.000000 0.000000 0.000000
									}
								}
							}
						}
					}
				}
			}
		}
	}
}
MOTION
Frames: 9
Frame Time: 0.016667
-0.347710 16.251570 -1.069940 -6.295307 -23.037422 12.820839 -14.834141 12.636789 2.471561 12.162964 -2.318256 -21.560100 -3.193527 5.595627 18.435877 -0.445954 4.140719 3.302807 0.281250 0.044150 0.114800 18.598972 -11.100616 3.288294 -3.738504 3.443869 -22.527918 7.117469 -2.838895 3.536090 0.247601 -2.851749 3.574856 0.186320 0.648950 0.317620 -4.319739 0.655750 -6.910110 13.282412 -0.352345 4.069618 -3.563043 -1.229174 -3.881101 3.769179 1.819259 -3.715634 4.470987 -2.602452 17.750531 -5.930950 0.537530 3.137050 -9.602146 15.857583 -5.571881 -42.924660 -6.857541 0.550839 53.644061 -33.225145 -10.077211 -4.282775 3.206345 -0.083970 0.593920 -0.390000 0.359000 1.496704 -15.852600 4.969644 59.708040 -1.473588 -0.646844 -104.950456 70.413356 -84.872783 1.730934 1.842634 -0.208070 0.055820 -0.137180 0.023390 
-0.347020 16.248630 -1.072320 -6.100907 -22.999913 12.701206 -14.826857 12.637279 2.471281 12.008008 -2.309942 -21.348700 -3.239575 5.554756 18.145990 -0.464150 4.105681 3.315262 0.289960 0.061780 0.119600 18.599996 -11.133863 3.277266 -3.933659 3.432388 -22.775598 7.057274 -2.893138 4.006984 0.251979 -2.847138 3.575228 0.201760 0.646920 0.310070 -4.326745 0.713675 -6.885353 13.123524 -0.378292 4.070696 -3.216236 -1.232538 -3.798554 3.554982 1.705961 -3.706920 4.324300 -2.374912 17.744044 -6.103720 0.670700 2.825460 -9.818247 15.674685 -5.495535 -42.857320 -6.662816 0.487821 53.173604 -33.358041 -9.971993 -4.280509 3.194735 -0.081910 0.595170 -0.389270 0.358310 2.114547 -15.501647 4.788671 58.889161 -0.454891 0.669667 -109.350174 66.590329 -90.025900 2.007573 0.229645 -0.213370 0.067430 -0.138220 0.019830 
-0.344110 16.247970 -1.076120 -5.820189 -22.843794 12.470850 -14.810440 12.649245 2.470355 11.683779 -2.298334 -20.864601 -3.197350 5.397091 17.410812 -0.494050 4.016162 3.350969 0.302600 0.077000 0.136210 18.601620 -11.198890 3.265377 -4.216898 3.416667 -23.204796 6.935358 -2.999207 4.913207 0.256593 -2.838044 3.568019 0.218090 0.641490 0.307030 -4.341267 0.809619 -6.866022 12.956562 -0.465496 4.178295 -2.861896 -1.287238 -3.650756 3.398459 1.615757 -3.785044 4.222296 -2.001364 17.837514 -6.338560 0.883550 2.432620 -9.942502 15.414756 -5.390391 -42.733299 -6.358818 0.376640 52.195755 -33.679884 -9.782749 -4.277950 3.182600 -0.074200 0.594590 -0.384640 0.354080 2.517607 -15.001842 4.602795 57.843419 1.459519 1.425340 -114.642884 62.003853 -94.102381 2.065722 -0.985778 -0.220100 0.078420 -0.139500 0.011120 
-0.340800 16.249580 -1.081120 -5.477602 -22.594474 12.118855 -14.784119 12.638423 2.455802 11.260820 -2.276845 -20.138235 -3.115219 5.181303 16.458731 -0.532472 3.906733 3.398056 0.330200 0.113030 0.160960 18.613212 -11.295790 3.252301 -4.591721 3.370550 -23.674309 6.812702 -3.129962 5.969708 0.256526 -2.851611 3.551663 0.251890 0.639590 0.307130 -4.386669 1.000877 -6.832721 12.821717 -0.595130 4.189130 -2.811310 -1.447577 -3.029479 3.433655 1.622426 -3.920135 4.305619 -1.511740 17.846299 -6.597170 1.149730 1.908330 -9.903847 14.934238 -5.231863 -42.497737 -6.006160 0.154991 51.400889 -34.068741 -9.705933 -4.281528 3.173757 -0.073130 0.601000 -0.378440 0.357370 2.424258 -14.330118 4.535296 57.128330 4.207438 2.241692 -119.500931 56.357835 -94.937409 2.014427 -1.646699 -0.225670 0.095540 -0.148830 0.004300 
-0.339430 16.259600 -1.091920 -5.031084 -22.201590 11.574896 -14.762419 12.647637 2.454656 10.726153 -2.258933 -19.261162 -2.936226 4.906981 15.319361 -0.576361 3.779868 3.453443 0.346090 0.128840 0.175930 18.613369 -11.397564 3.243841 -4.975255 3.282361 -24.047790 6.584367 -3.252342 6.986213 0.255315 -2.860558 3.540572 0.270510 0.638120 0.302300 -4.402608 1.159538 -6.837483 12.431159 -0.773088 4.570266 -2.910216 -1.603920 -2.521411 3.629968 1.724887 -4.203890 4.494329 -0.963416 18.136280 -6.592370 1.339880 1.364970 -9.903831 14.197638 -5.028167 -41.979674 -5.632449 -0.075893 51.322651 -34.356159 -9.820271 -4.275940 3.157350 -0.054920 0.598030 -0.373460 0.356930 2.052842 -13.407240 4.706994 55.930054 7.060059 3.179450 -123.085734 50.064619 -92.480143 1.954284 -1.974532 -0.238310 0.115400 -0.147040 -0.006640 
-0.338160 16.271750 -1.102220 -4.571462 -21.657571 10.981873 -14.746417 12.655824 2.461809 10.195898 -2.241704 -18.282564 -2.764914 4.622312 14.020941 -0.601938 3.658007 3.510720 0.344650 0.125600 0.173680 18.607407 -11.485724 3.239140 -5.488653 3.159878 -24.306585 6.655031 -3.425001 7.902411 0.255662 -2.904724 3.519311 0.273510 0.643280 0.301080 -4.404667 1.290553 -6.861653 12.017877 -0.987599 5.013304 -3.207496 -1.770202 -1.984278 3.993354 1.866375 -4.634088 4.730088 -0.496462 18.494882 -6.512050 1.495460 1.305290 -9.654655 13.389064 -4.772305 -41.616962 -5.294519 -0.431096 51.439483 -34.867229 -10.184601 -4.270515 3.149426 -0.046090 0.599640 -0.375560 0.355480 1.085461 -12.416307 5.141989 54.401817 9.557948 3.983744 -125.190806 43.957251 -87.721597 1.917118 -2.159543 -0.247220 0.123360 -0.139590 -0.011100 
-0.339130 16.282580 -1.110950 -4.340028 -21.234733 10.538252 -14.734069 12.657868 2.479729 10.006730 -2.217231 -17.361387 -2.761798 4.413342 12.717383 -0.613889 3.583908 3.550396 0.341320 0.117490 0.167330 18.602379 -11.540847 3.240722 -5.809275 3.097865 -24.573641 6.846272 -3.594774 8.742752 0.255975 -2.947668 3.499618 0.272050 0.649910 0.300350 -4.407160 1.375244 -6.902965 11.863575 -1.236798 5.472182 -3.679733 -1.897418 -1.598260 4.408496 1.890461 -5.029283 4.774651 -0.110347 18.793185 -6.289510 1.533010 1.395100 -9.193632 12.850065 -4.575728 -41.414399 -4.983301 -0.831014 51.660853 -35.476527 -10.674675 -4.263367 3.148485 -0.039360 0.599500 -0.380160 0.356380 -0.240512 -11.615389 5.609248 52.292221 11.432470 4.444879 -125.914924 38.969624 -81.811926 1.902309 -2.271168 -0.254240 0.127020 -0.132960 -0.012760 
-0.342910 16.290320 -1.116900 -4.165067 -20.882969 10.274475 -14.741194 12.666062 2.506469 9.956425 -2.209482 -16.644092 -2.897252 4.281443 11.550708 -0.613150 3.558266 3.579760 0.327340 0.100890 0.148770 18.586722 -11.544331 3.235389 -6.043874 3.072755 -24.889129 7.023633 -3.726442 9.429440 0.267522 -2.984559 3.493049 0.267510 0.675290 0.296410 -4.371954 1.352942 -6.940287 11.588765 -1.548348 5.779054 -4.003493 -2.048080 -1.460658 4.818313 1.831963 -5.256540 4.673226 0.165505 18.963644 -6.076210 1.474800 1.890010 -8.771401 12.733409 -4.439997 -41.196956 -4.527914 -1.192368 51.901804 -36.422840 -11.293336 -4.268948 3.141117 -0.048620 0.613280 -0.398810 0.361480 -1.488906 -11.249181 5.834173 49.120025 12.623411 4.651302 -125.454733 35.985293 -76.257424 1.904012 -2.329384 -0.264430 0.137470 -0.123460 -0.007390 
-0.347840 16.295010 -1.118900 -4.092657 -20.623169 10.183301 -14.762377 12.684767 2.531487 10.023984 -2.211924 -16.114247 -3.063590 4.195911 10.571895 -0.604779 3.563019 3.592820 0.314480 0.086770 0.129350 18.565712 -11.501172 3.222997 -6.201795 3.082862 -25.207960 7.250490 -3.841820 10.024222 0.282012 -3.021720 3.480805 0.265590 0.699580 0.296840 -4.315636 1.227034 -6.964021 11.379996 -1.893384 5.870317 -4.266466 -2.214160 -1.412862 5.198612 1.677357 -5.297167 4.396416 0.262958 19.013862 -5.909180 1.271940 2.539060 -8.549136 12.820394 -4.337278 -40.786908 -4.033832 -1.511159 52.302813 -37.301306 -11.961222 -4.281581 3.146017 -0.070890 0.630620 -0.422250 0.363410 -2.433871 -11.182759 5.771226 44.952670 13.004246 4.428719 -123.959616 34.875258 -71.473806 1.919533 -2.356576 -0.267420 0.138880 -0.112760 0.000490 
